<svg width="460" height="184" viewBox="0 0 460 184" fill="none" xmlns="http://www.w3.org/2000/svg">
<path d="M11.8072 49.5836C41.1971 71.9543 71.835 92.8601 104.417 110.319C136.632 127.584 170.832 141.534 206.613 149.339C237.663 156.11 269.468 158.021 301.002 153.682C330.27 149.657 358.964 140.605 384.789 126.152C410.156 111.95 432.54 92.2905 448.626 67.9754C450.476 65.1718 452.234 62.3144 453.915 59.4055C448.647 60.7355 443.373 62.0655 438.104 63.396C437.244 63.6111 436.382 63.8312 435.517 64.0457C434.835 64.2154 434.139 63.5871 434.048 62.9471C433.94 62.1892 434.465 61.6477 435.147 61.473C441.304 59.9204 447.455 58.3724 453.606 56.8192C454.472 56.5991 455.333 56.3839 456.194 56.1638C457.082 55.9412 457.704 56.8592 457.671 57.6152C457.545 60.1197 457.425 62.6249 457.305 65.1301C457.11 69.125 456.915 73.125 456.719 77.1249C456.674 78.0518 456.63 78.9787 456.585 79.9062C456.553 80.6096 455.792 81.1152 455.132 81.031C454.389 80.9363 453.974 80.2809 454.006 79.5775C454.127 77.0723 454.252 74.5671 454.372 72.067C454.518 69.0255 454.669 65.9892 454.815 62.9528C440.333 87.0634 420.007 107.153 396.308 122.27C371.239 138.255 342.878 148.785 313.702 154.253C283.049 160.003 251.65 159.958 220.927 154.753C184.356 148.561 149.172 135.817 116.068 119.272C82.6796 102.591 51.2778 82.1276 21.2962 59.9587C17.581 57.2161 13.8959 54.4401 10.2195 51.6452C8.88874 50.6317 10.4701 48.5694 11.8072 49.5836Z" fill="#0C92BE" fill-opacity="0.2"/>
</svg>
