<svg width="16" height="19" viewBox="0 0 16 19" fill="none" xmlns="http://www.w3.org/2000/svg">
<path d="M14.9091 7.95455C14.9091 13.3636 7.95455 18 7.95455 18C7.95455 18 1 13.3636 1 7.95455C1 6.11009 1.73271 4.34117 3.03694 3.03694C4.34117 1.73271 6.11009 1 7.95455 1C9.79901 1 11.5679 1.73271 12.8722 3.03694C14.1764 4.34117 14.9091 6.11009 14.9091 7.95455Z" stroke="#51CF48" stroke-width="2" stroke-linecap="round" stroke-linejoin="round"/>
<path d="M7.95453 10.2727C9.23483 10.2727 10.2727 9.23485 10.2727 7.95455C10.2727 6.67425 9.23483 5.63637 7.95453 5.63637C6.67424 5.63637 5.63635 6.67425 5.63635 7.95455C5.63635 9.23485 6.67424 10.2727 7.95453 10.2727Z" stroke="#51CF48" stroke-width="2" stroke-linecap="round" stroke-linejoin="round"/>
</svg>
