<svg width="65" height="65" viewBox="0 0 65 65" fill="none" xmlns="http://www.w3.org/2000/svg">
<path d="M45.1359 35.6908L57.5697 48.1245C58.036 48.6046 57.3327 49.3234 56.8433 48.8511L44.4095 36.4172C43.9436 35.9372 44.6465 35.2186 45.1359 35.6908Z" fill="#0C92BE"/>
<path d="M34.2761 26.0708C34.2087 26.0709 34.1419 26.0576 34.0795 26.0318C34.0172 26.006 33.9606 25.9682 33.913 25.9204L21.2495 13.257C21.1532 13.1606 21.0991 13.03 21.0991 12.8937C21.0991 12.7575 21.1532 12.6269 21.2495 12.5305C21.3459 12.4342 21.4765 12.3801 21.6127 12.3801C21.749 12.3801 21.8796 12.4342 21.9759 12.5305L34.6394 25.1939C34.7096 25.2663 34.7571 25.3577 34.776 25.4568C34.7949 25.5559 34.7844 25.6584 34.7458 25.7516C34.7072 25.8448 34.6421 25.9247 34.5587 25.9814C34.4752 26.0381 34.377 26.0692 34.2761 26.0708Z" fill="#0C92BE"/>
<path d="M54.4996 16.3272C54.0142 16.7965 53.3037 16.0864 53.7731 15.6009C54.069 15.2935 54.4023 14.8818 54.8341 15.2663C55.2184 15.703 54.8075 16.0285 54.4996 16.3272Z" fill="#0C92BE"/>
<path d="M45.1361 25.6908C44.6527 26.1587 43.9392 25.4515 44.4097 24.9644L51.0741 18.3C51.5565 17.8326 52.2716 18.5387 51.8005 19.0264L45.1361 25.6908Z" fill="#0C92BE"/>
<path d="M13.5757 31.2044H13.0263C12.3512 31.193 12.3511 30.1886 13.0263 30.1772H13.5757C14.2507 30.189 14.2509 31.193 13.5757 31.2044Z" fill="#0C92BE"/>
<path d="M17.8964 31.2106L17.8273 30.1745C18.5419 30.1389 24.9239 29.8162 30.805 29.369C32.6312 29.2347 34.3506 28.4573 35.6577 27.1749C36.9647 25.8925 37.7748 24.1882 37.9438 22.3649C38.4258 17.4012 38.5642 7.36234 38.8973 2.07253C38.946 1.45706 39.8698 1.43253 39.9222 2.07253C40.0443 3.82236 40.1423 6.66033 40.246 9.66471C40.4001 14.114 40.5737 19.1568 40.8752 22.3644C41.0443 24.1877 41.8543 25.892 43.1613 27.1744C44.4684 28.4567 46.1878 29.2342 48.014 29.3684C54.2227 29.8406 60.9908 30.174 61.0584 30.1774C61.6853 30.2055 61.7118 31.168 61.0584 31.2034C60.9909 31.2067 54.2228 31.5401 48.0141 32.0124C46.1879 32.1467 44.4685 32.9242 43.1615 34.2066C41.8544 35.489 41.0444 37.1933 40.8753 39.0166C40.3874 44.1256 40.2546 50.8392 39.9219 55.8953C39.8762 56.5155 38.946 56.5302 38.8971 55.8953C38.564 50.8368 38.432 44.1282 37.9435 39.0167C37.788 37.3489 37.0961 35.7765 35.9714 34.5352L26.0711 44.7555C26.0055 44.8272 25.9198 44.8775 25.8252 44.8999C25.7306 44.9223 25.6315 44.9157 25.5407 44.8809L25.2582 44.6435C25.2 44.5496 25.1757 44.4386 25.1892 44.3289C25.2028 44.2193 25.2534 44.1175 25.3327 44.0406L29.3735 39.8695L30.4948 38.712L35.2331 33.8214C33.9848 32.7667 32.4351 32.1336 30.8054 32.0124C25.0827 31.5775 18.8853 31.2602 17.8964 31.2106Z" fill="#0C92BE"/>
</svg>
