<svg width="65" height="66" viewBox="0 0 65 66" fill="none" xmlns="http://www.w3.org/2000/svg">
<path d="M45.4161 36.6681L57.85 49.1018C58.3162 49.5819 57.6129 50.3006 57.1236 49.8283L44.6897 37.3945C44.2239 36.9145 44.9268 36.1959 45.4161 36.6681Z" fill="white"/>
<path d="M34.5564 27.0481C34.4889 27.0482 34.4221 27.035 34.3598 27.0092C34.2975 26.9834 34.2409 26.9455 34.1933 26.8977L21.5298 14.2343C21.4335 14.1379 21.3794 14.0073 21.3794 13.8711C21.3794 13.7348 21.4335 13.6042 21.5298 13.5079C21.6261 13.4115 21.7568 13.3574 21.893 13.3574C22.0292 13.3574 22.1599 13.4115 22.2562 13.5079L34.9197 26.1712C34.9899 26.2436 35.0374 26.3351 35.0563 26.4342C35.0752 26.5333 35.0647 26.6357 35.0261 26.729C34.9874 26.8222 34.9224 26.9021 34.8389 26.9588C34.7555 27.0155 34.6573 27.0465 34.5564 27.0481Z" fill="white"/>
<path d="M54.7799 17.3045C54.2945 17.7738 53.584 17.0637 54.0533 16.5782C54.3493 16.2708 54.6825 15.8591 55.1144 16.2436C55.4987 16.6803 55.0878 17.0058 54.7799 17.3045Z" fill="white"/>
<path d="M45.4163 26.6681C44.933 27.136 44.2194 26.4287 44.6899 25.9417L51.3544 19.2772C51.8368 18.8098 52.5519 19.5159 52.0808 20.0036L45.4163 26.6681Z" fill="white"/>
<path d="M13.856 32.1818H13.3066C12.6315 32.1703 12.6314 31.1659 13.3066 31.1545H13.856C14.5309 31.1663 14.5312 32.1703 13.856 32.1818Z" fill="white"/>
<path d="M18.1767 32.1879L18.1076 31.1518C18.8222 31.1162 25.2041 30.7935 31.0853 30.3463C32.9115 30.212 34.6309 29.4346 35.9379 28.1522C37.245 26.8698 38.055 25.1655 38.224 23.3422C38.7061 18.3785 38.8445 8.33963 39.1776 3.04982C39.2263 2.43436 40.1501 2.40983 40.2024 3.04982C40.3246 4.79965 40.4225 7.63762 40.5263 10.642C40.6804 15.0913 40.854 20.1341 41.1555 23.3417C41.3245 25.165 42.1346 26.8692 43.4416 28.1516C44.7487 29.434 46.4681 30.2115 48.2943 30.3457C54.503 30.8179 61.271 31.1512 61.3387 31.1547C61.9656 31.1828 61.9921 32.1453 61.3387 32.1807C61.2712 32.184 54.5031 32.5174 48.2944 32.9897C46.4682 33.124 44.7488 33.9015 43.4418 35.1839C42.1347 36.4663 41.3247 38.1706 41.1556 39.9939C40.6677 45.1029 40.5349 51.8165 40.2022 56.8726C40.1565 57.4928 39.2263 57.5075 39.1774 56.8726C38.8443 51.8141 38.7123 45.1055 38.2238 39.994C38.0683 38.3262 37.3763 36.7538 36.2517 35.5125L26.3513 45.7327C26.2858 45.8045 26.2001 45.8548 26.1055 45.8772C26.0109 45.8996 25.9118 45.893 25.821 45.8582L25.5385 45.6208C25.4803 45.5269 25.4559 45.4159 25.4695 45.3062C25.483 45.1965 25.5337 45.0948 25.613 45.0179L29.6538 40.8468L30.775 39.6893L35.5133 34.7987C34.265 33.744 32.7153 33.1109 31.0857 32.9897C25.363 32.5548 19.1656 32.2375 18.1767 32.1879Z" fill="white"/>
<path d="M25.5383 45.6212L25.8208 45.8586C25.7026 45.8136 25.603 45.7299 25.5383 45.6212Z" fill="white"/>
</svg>
