<svg width="189" height="200" viewBox="0 0 189 200" fill="none" xmlns="http://www.w3.org/2000/svg">
<g clip-path="url(#clip0_57_55)">
<path d="M77.5979 85.0505V195.103H85.6594C91.9869 195.103 97.143 189.927 97.143 183.615V85.0505H77.5979Z" fill="#E9EAEB"/>
<path d="M85.6594 200H74.7012C73.5966 200 72.7012 199.105 72.7012 198V82.156C72.7012 81.0514 73.5966 80.156 74.7012 80.156H100.04C101.144 80.156 102.04 81.0514 102.04 82.156V183.618C102.04 192.651 94.6924 200 85.6594 200ZM82.4946 188.209C82.4946 189.313 83.39 190.209 84.4946 190.209H85.6594C89.2924 190.209 92.2484 187.251 92.2484 183.618V91.9472C92.2484 90.8426 91.353 89.9472 90.2484 89.9472H84.4946C83.39 89.9472 82.4946 90.8426 82.4946 91.9472V188.209Z" fill="#005498"/>
<path d="M97.1452 94.8022H77.5979V104.593H97.1452V94.8022Z" fill="#005498"/>
<path d="M92.268 56.7164H82.4768V85.0505H92.268V56.7164Z" fill="#005498"/>
<path d="M113.174 30.9143C113.174 45.1692 101.626 56.7165 87.3671 56.7165C73.121 56.7165 61.5693 45.1692 61.5693 30.9143C61.5693 16.6593 73.121 5.11206 87.3671 5.11206C101.629 5.11426 113.174 16.6615 113.174 30.9143Z" fill="#A1F4F4"/>
<path d="M111.627 49.7336C101.255 63.1055 81.9359 65.5462 68.5605 55.1713C55.1851 44.7965 52.7426 25.4761 63.1148 12.1041C73.4924 -1.27475 92.8114 -3.71547 106.187 6.65939C119.562 17.0343 122.005 36.3547 111.627 49.7336ZM70.8514 18.1052C63.7876 27.212 65.453 40.3695 74.5598 47.4334C83.6701 54.4999 96.8249 52.838 103.889 43.7312C110.955 34.6209 109.296 21.4626 100.186 14.396C91.079 7.33216 77.918 8.99489 70.8514 18.1052Z" fill="#005498"/>
<path d="M83.6193 44.1697C82.7571 45.2813 81.2653 45.8089 79.8332 45.3779C76.0387 44.2348 72.8019 40.7792 71.3797 36.3566C70.0158 32.1107 70.6348 27.8479 73.0857 24.6651C73.0876 24.6626 73.0915 24.6576 73.0934 24.6551C74.2772 23.129 76.4756 22.8446 78.008 24.0253C79.5436 25.2044 79.8311 27.4092 78.6485 28.9441C77.198 30.8295 77.7556 33.2516 78.0627 34.2076C78.7538 36.3625 80.3154 38.1918 81.8575 38.6583C83.7142 39.2153 84.7655 41.1731 84.2047 43.0269C84.0778 43.4527 83.8771 43.8374 83.6193 44.1697Z" fill="white"/>
<path d="M146.594 85.0505V195.103H154.653C160.983 195.103 166.134 189.927 166.134 183.615V85.0505H146.594Z" fill="#E9EAEB"/>
<path d="M154.653 200H143.697C142.592 200 141.697 199.105 141.697 198V82.156C141.697 81.0515 142.592 80.156 143.697 80.156H169.029C170.133 80.156 171.029 81.0515 171.029 82.156V183.618C171.029 192.651 163.684 200 154.653 200ZM151.488 188.209C151.488 189.313 152.383 190.209 153.488 190.209H154.653C158.281 190.209 161.235 187.251 161.235 183.618V91.9472C161.235 90.8427 160.34 89.9472 159.235 89.9472H153.486C152.381 89.9472 151.486 90.8427 151.486 91.9473L151.488 188.209Z" fill="#005498"/>
<path d="M166.134 94.8022H146.594V104.593H166.134V94.8022Z" fill="#005498"/>
<path d="M161.257 56.7165H151.466V85.0506H161.257V56.7165Z" fill="#005498"/>
<path d="M156.361 61.6132C153.659 61.6132 151.464 59.4198 151.464 56.7165C151.464 54.0132 153.657 51.8198 156.361 51.8198C167.886 51.8198 177.264 42.444 177.264 30.9143C177.264 19.389 167.886 10.0088 156.361 10.0088C144.831 10.0088 135.453 19.389 135.453 30.9143C135.453 33.6176 133.259 35.811 130.556 35.811C127.853 35.811 125.659 33.6176 125.659 30.9143C125.659 13.9868 139.435 0.21759 156.361 0.21759C173.284 0.21759 187.055 13.9868 187.055 30.9143C187.055 47.8418 173.286 61.6132 156.361 61.6132Z" fill="#005498"/>
<path d="M12.2549 85.0505V195.103H20.3142C26.6417 195.103 31.7977 189.927 31.7977 183.615V85.0505H12.2549Z" fill="#E9EAEB"/>
<path d="M20.3142 200H9.35816C8.25359 200 7.35815 199.105 7.35815 198V82.156C7.35815 81.0515 8.25358 80.156 9.35815 80.156H34.6922C35.7968 80.156 36.6922 81.0515 36.6922 82.156V183.618C36.6922 192.651 29.3472 200 20.3142 200ZM17.1537 188.209C17.1537 189.313 18.0491 190.209 19.1537 190.209H20.3142C23.9472 190.209 26.901 187.251 26.901 183.618V91.9472C26.901 90.8427 26.0056 89.9472 24.901 89.9472H19.1516C18.047 89.9472 17.1516 90.8427 17.1516 91.9473L17.1537 188.209Z" fill="#005498"/>
<path d="M31.7977 94.8022H12.2549V104.593H31.7977V94.8022Z" fill="#005498"/>
<path d="M26.9275 83.0506C26.9275 84.1551 26.032 85.0506 24.9275 85.0506H19.1363C18.0317 85.0506 17.1363 84.1551 17.1363 83.0506V44.1121C17.1363 42.9758 17.5319 41.8769 18.2571 40.9978L30.2058 26.5108C31.0287 25.513 30.7025 24.0084 29.5403 23.441L2.80844 10.3897C1.81577 9.90502 1.40401 8.70736 1.88878 7.71475L4.43013 2.51115C4.91481 1.51873 6.11217 1.10704 7.10466 1.59157L41.6967 18.4791C43.044 19.1385 44.0132 20.3758 44.3319 21.8418C44.6505 23.3077 44.2769 24.8374 43.3231 25.9934L27.3846 45.3161C27.0891 45.6744 26.9275 46.1243 26.9275 46.5888V83.0506Z" fill="#005498"/>
</g>
<defs>
<clipPath id="clip0_57_55">
<rect width="200" height="200" fill="white"/>
</clipPath>
</defs>
</svg>
